 <svg  version="1.0" xmlns="http://www.w3.org/2000/svg"  width="157.000000pt" height="57.000000pt" viewBox="0 0 157.000000 57.000000"  preserveAspectRatio="xMidYMid meet">  <g transform="translate(0.000000,57.000000) scale(0.100000,-0.100000)" fill="#f5c518" stroke="none"> <path d="M133 496 c-17 -8 -36 -23 -42 -35 -15 -26 -15 -316 0 -343 25 -47 38 -48 679 -48 641 0 654 1 679 48 15 27 15 317 0 344 -25 46 -38 47 -680 47 -494 0 -610 -2 -636 -13z m1281 -42 c23 -23 23 -305 0 -328 -14 -14 -86 -16 -644 -16 -558 0 -630 2 -644 16 -23 23 -23 305 0 328 14 14 86 16 644 16 558 0 630 -2 644 -16z"/> <path d="M184 375 c-12 -30 2 -35 25 -11 l24 26 -22 0 c-12 0 -24 -7 -27 -15z"/> <path d="M231 365 c-21 -23 -22 -25 -4 -25 11 0 30 11 43 25 22 23 22 25 4 25 -10 0 -30 -12 -43 -25z"/> <path d="M300 365 c-17 -18 -20 -25 -8 -25 8 0 25 11 38 25 17 18 20 25 8 25 -8 0 -25 -11 -38 -25z"/> <path d="M355 360 c-18 -19 -17 -20 3 -20 15 0 22 6 22 20 0 11 -2 20 -3 20 -2 0 -12 -9 -22 -20z"/> <path d="M470 300 c0 -64 2 -70 21 -70 19 0 21 5 17 45 -2 25 0 45 3 45 3 0 14 -21 24 -46 23 -60 53 -59 75 4 19 55 33 54 28 -3 -3 -38 0 -45 14 -45 16 0 18 10 18 70 0 67 -1 70 -24 70 -19 0 -28 -11 -49 -57 l-25 -58 -25 58 c-22 48 -30 57 -51 57 -25 0 -26 -2 -26 -70z"/> <path d="M930 300 c0 -61 2 -70 18 -70 15 0 18 6 14 30 -4 29 -3 30 37 30 39 0 41 -2 41 -30 0 -22 5 -30 18 -30 15 0 17 10 17 70 0 60 -2 70 -17 70 -13 0 -18 -8 -18 -30 0 -28 -2 -30 -41 -30 -40 0 -41 1 -37 30 4 24 1 30 -14 30 -16 0 -18 -9 -18 -70z"/> <path d="M1235 300 l0 -70 47 0 c40 0 50 4 64 25 15 23 15 27 0 50 -9 14 -30 28 -46 32 -17 3 -30 12 -30 19 0 8 -8 14 -17 14 -15 0 -18 -10 -18 -70z m73 11 c22 -13 11 -56 -15 -59 -20 -3 -23 1 -23 32 0 36 11 44 38 27z"/> <path d="M700 290 c11 -28 20 -53 20 -55 0 -3 11 -5 25 -5 24 0 38 20 59 88 11 34 -22 28 -35 -5 -5 -16 -12 -35 -15 -43 -4 -10 -12 -1 -25 28 -10 23 -25 42 -33 42 -14 0 -13 -7 4 -50z"/> <path d="M1100 297 c0 -54 13 -67 67 -67 l43 0 0 55 c0 42 -3 55 -15 55 -11 0 -15 -12 -15 -46 0 -41 -2 -45 -22 -42 -19 2 -24 10 -26 46 -2 28 -8 42 -18 42 -10 0 -14 -12 -14 -43z"/> <path d="M182 278 l3 -53 95 0 95 0 3 53 3 52 -101 0 -101 0 3 -52z m178 2 c0 -31 -18 -40 -88 -40 -37 0 -44 3 -53 27 -13 34 -4 41 51 45 74 5 90 -1 90 -32z"/> <path d="M817 303 c-17 -16 -3 -23 43 -23 38 0 50 4 50 15 0 11 -11 15 -43 15 -24 0 -47 -3 -50 -7z"/> </g> </svg> 